<svg xmlns="http://www.w3.org/2000/svg" viewBox="0 0 800 600">
  <!-- Definitions for gradients and filters -->
  <defs>
    <!-- Main background gradient -->
    <linearGradient id="bgGradient" x1="0%" y1="0%" x2="100%" y2="100%">
      <stop offset="0%" style="stop-color:#4f46e5;stop-opacity:1" />
      <stop offset="50%" style="stop-color:#7c3aed;stop-opacity:1" />
      <stop offset="100%" style="stop-color:#db2777;stop-opacity:1" />
    </linearGradient>
    
    <!-- Blob gradient -->
    <linearGradient id="blobGradient" x1="0%" y1="0%" x2="100%" y2="100%">
      <stop offset="0%" style="stop-color:#34d399;stop-opacity:0.2" />
      <stop offset="100%" style="stop-color:#60a5fa;stop-opacity:0.2" />
    </linearGradient>
    
    <!-- Gaussian blur for soft edges -->
    <filter id="blur">
      <feGaussianBlur stdDeviation="30" />
    </filter>
  </defs>
  
  <!-- Base background -->
  <rect width="100%" height="100%" fill="url(#bgGradient)" />
  
  <!-- Abstract decorative elements -->
  <!-- Blob shapes -->
  <circle cx="200" cy="150" r="100" fill="url(#blobGradient)" filter="url(#blur)" />
  <circle cx="600" cy="400" r="150" fill="url(#blobGradient)" filter="url(#blur)" />
  
  <!-- Sentiment-related elements -->
  <!-- Emoji faces with different expressions -->
  <g opacity="0.2" fill="#ffffff">
    <!-- Happy face -->
    <circle cx="100" cy="100" r="30" />
    <path d="M85,100 Q100,120 115,100" stroke="#4f46e5" stroke-width="3" fill="none"/>
    <circle cx="90" cy="90" r="3" fill="#4f46e5"/>
    <circle cx="110" cy="90" r="3" fill="#4f46e5"/>
    
    <!-- Sad face -->
    <circle cx="700" cy="200" r="30" />
    <path d="M685,210 Q700,190 715,210" stroke="#4f46e5" stroke-width="3" fill="none"/>
    <circle cx="690" cy="190" r="3" fill="#4f46e5"/>
    <circle cx="710" cy="190" r="3" fill="#4f46e5"/>
    
    <!-- Neutral face -->
    <circle cx="200" cy="500" r="30" />
    <line x1="185" y1="500" x2="215" y2="500" stroke="#4f46e5" stroke-width="3"/>
    <circle cx="190" cy="490" r="3" fill="#4f46e5"/>
    <circle cx="210" cy="490" r="3" fill="#4f46e5"/>
  </g>
  
  <!-- Sentiment waves (representing emotion intensity) -->
  <g opacity="0.2" stroke="#ffffff" stroke-width="2" fill="none">
    <!-- Positive sentiment wave -->
    <path d="M300,100 Q325,80 350,100 Q375,120 400,100 Q425,80 450,100" />
    <!-- Negative sentiment wave -->
    <path d="M300,150 Q325,170 350,150 Q375,130 400,150 Q425,170 450,150" />
  </g>
  
  <!-- Text analysis indicators -->
  <g opacity="0.15" fill="#ffffff">
    <rect x="500" y="300" width="100" height="10" rx="5" />
    <rect x="500" y="320" width="80" height="10" rx="5" />
    <rect x="500" y="340" width="60" height="10" rx="5" />
  </g>
  
  <!-- Floating particles -->
  <g opacity="0.4">
    <circle cx="100" cy="100" r="3" fill="#fcd34d" />
    <circle cx="150" cy="450" r="2" fill="#fcd34d" />
    <circle cx="700" cy="200" r="2" fill="#fcd34d" />
    <circle cx="600" cy="150" r="3" fill="#fcd34d" />
    <circle cx="300" cy="500" r="2" fill="#fcd34d" />
    <circle cx="400" cy="100" r="2" fill="#fcd34d" />
  </g>
  
  <!-- Sentiment scale -->
  <g transform="translate(50,250)" opacity="0.2">
    <rect x="0" y="0" width="150" height="20" rx="10" fill="#ffffff" />
    <circle cx="30" cy="10" r="8" fill="#ef4444" /> <!-- Negative -->
    <circle cx="75" cy="10" r="8" fill="#fbbf24" /> <!-- Neutral -->
    <circle cx="120" cy="10" r="8" fill="#34d399" /> <!-- Positive -->
  </g>
  
  <!-- Grid pattern overlay -->
  <pattern id="grid" x="0" y="0" width="40" height="40" patternUnits="userSpaceOnUse">
    <path d="M 40 0 L 0 0 0 40" fill="none" stroke="#ffffff" stroke-width="0.5" opacity="0.1"/>
  </pattern>
  <rect width="100%" height="100%" fill="url(#grid)" />
</svg>